# xmcd
#
# Track frame offsets:
#	150
#	9410
#	21167
#	30885
#	43890
#	56627
#	70040
#	79112
#	91127
#	101342
#
# Disc length: 1499
#
# Revision: 2
# Processed by: cddbd v1.5.1PL0 Copyright (c) Steve Scherf et al.
# Submitted via: DiscPlay 4.0.4
# Normalized: r1:TDELIM( - )
#
DISCID=6b05d90a
DTITLE=Various Artist - Movin' Country Instrumentals
DYEAR=1900
DGENRE=
TTITLE0=Cold, Rolled Steel - Buddy Emmons
TTITLE1=Fire on the Strings - Joe Maphis
TTITLE2=Remington Ride - Herby Remington
TTITLE3=Sugarfoot Rag - Harold Bradley
TTITLE4=Orange Blossom Special - Charlie McCoy
TTITLE5=El Paso - Grady Martin
TTITLE6=I'm Movin' On - Jerry Reed
TTITLE7=Spanish Harlem - Carl Perkins and Tennessee 3
TTITLE8=Memories of Maria - Jerry Byrd
TTITLE9=Guitar Boogie - Arthur Smith
EXTD=
EXTT0=
EXTT1=
EXTT2=
EXTT3=
EXTT4=
EXTT5=
EXTT6=
EXTT7=
EXTT8=
EXTT9=
PLAYORDER=
